<svg width="40" height="40" viewBox="0 0 40 40" fill="none" xmlns="http://www.w3.org/2000/svg">
<path d="M30.2959 7.11869L30.6017 6.73445L30.223 6.42181C27.3076 4.01466 23.605 2.57677 19.5541 2.57677C18.1349 2.57677 16.759 2.77559 15.4562 3.1013L14.7291 3.28309L15.1762 3.88464C16.5668 5.75551 18.5645 8.58108 20.9569 13.0064L21.1635 13.3886L21.5708 13.2373C26.0981 11.5563 28.811 8.98483 30.2959 7.11869ZM12.9956 4.36091L12.7506 4.03813L12.3841 4.21102C7.88793 6.33185 4.48156 10.3827 3.1369 15.3296L2.97082 15.9406L3.60367 15.9605C6.07956 16.0385 11.9978 15.9218 18.5554 14.165L19.1739 13.9993L18.8632 13.4394C16.3198 8.85573 14.1808 5.92219 12.9956 4.36091ZM32.4494 8.6199L32.0617 8.15926L31.6801 8.62499C30.0241 10.6462 27.1488 13.2715 22.5965 15.0529L22.0902 15.251L22.3299 15.7389C23.3114 17.7371 24.2636 19.8664 25.1312 22.1658L25.2741 22.5447L25.6745 22.4836C28.9677 21.9807 32.0119 21.9807 34.3113 22.1608C34.8704 22.2072 35.2312 22.2593 35.651 22.3199C35.7395 22.3327 35.8306 22.3459 35.9267 22.3594L36.4387 22.4317L36.4937 21.9175C36.5611 21.2869 36.5999 20.6536 36.5999 19.999C36.5999 15.6455 35.0226 11.677 32.4494 8.6199ZM20.3024 16.2472L20.1173 15.876L19.7183 15.9894C12.0051 18.1807 5.21035 18.1138 3.0943 18.0284L2.61247 18.0089L2.5756 18.4897L2.57302 18.5233C2.53645 18.9999 2.49893 19.4889 2.49893 20.0086C2.49893 25.2424 4.76329 29.9144 8.33424 33.1113L8.70704 33.4451L9.04051 33.072C9.93564 32.0707 11.1362 30.7954 12.5959 29.4642L12.5978 29.4624C15.3441 26.9307 18.8775 24.2519 22.7265 23.0831L23.2434 22.9261L23.047 22.4229C22.1855 20.2152 21.2579 18.163 20.3024 16.2472ZM29.792 24.1434L29.7866 24.1436C28.7754 24.1924 27.6991 24.2899 26.6046 24.4359L26.0098 24.5152L26.1952 25.0859C27.1189 27.9298 27.883 30.9423 28.3766 34.0761L28.5009 34.865L29.1563 34.4087C32.3423 32.1901 34.7524 28.8931 35.8751 25.0227L36.0403 24.4531L35.4509 24.3866C33.9909 24.2217 32.1396 24.0555 29.792 24.1434ZM24.1359 25.3287L23.9823 24.8753L23.5227 25.009C20.1413 25.9929 16.6045 28.5441 13.9241 31.0044C12.6288 32.183 11.5828 33.3018 10.7433 34.2183L10.3306 34.6688L10.8539 34.9842C13.3994 36.5186 16.3554 37.4213 19.5447 37.4213C21.9384 37.4213 24.1961 36.9156 26.258 36.0246L26.606 35.8741L26.5551 35.4984C26.0708 31.9246 25.2166 28.5185 24.1359 25.3287ZM0.5 19.999C0.5 9.24581 9.06724 0.5 19.5541 0.5C30.041 0.5 38.6083 9.24581 38.6083 19.999C38.6083 30.7522 30.041 39.498 19.5541 39.498C9.06724 39.498 0.5 30.7522 0.5 19.999Z" fill="#070707" stroke="#070707"/>
</svg>
